<svg xmlns="http://www.w3.org/2000/svg" width="178.121" height="87.981" viewBox="0 0 178.121 87.981"><g transform="translate(-1167 -5647.656)"><g transform="translate(1167 5647.656)"><g transform="translate(0.936 0)"><g transform="translate(124.721 13.837)"><path d="M2535.9-444.23c0,12.2-10.238,22.079-22.864,22.079s-22.873-9.879-22.873-22.079,10.243-22.08,22.873-22.08S2535.9-456.425,2535.9-444.23Z" transform="translate(-2490.163 466.31)" fill="#ef8e24"></path><path d="M2513.071-422.415c-12.54,0-22.711-9.81-22.711-21.924s10.171-21.925,22.711-21.925,22.7,9.816,22.7,21.925S2525.608-422.415,2513.071-422.415Z" transform="translate(-2490.133 466.317)" fill="#ef8f24"></path><path d="M2513.108-422.68c-12.452,0-22.552-9.74-22.552-21.769s10.1-21.769,22.552-21.769,22.542,9.747,22.542,21.769S2525.556-422.68,2513.108-422.68Z" transform="translate(-2490.104 466.324)" fill="#ef9023"></path><path d="M2513.145-422.944c-12.363,0-22.39-9.671-22.39-21.614s10.027-21.615,22.39-21.615,22.383,9.678,22.383,21.615S2525.5-422.944,2513.145-422.944Z" transform="translate(-2490.074 466.33)" fill="#ef9123"></path><path d="M2513.183-423.208c-12.275,0-22.23-9.6-22.23-21.459s9.956-21.46,22.23-21.46,22.221,9.608,22.221,21.46S2525.455-423.208,2513.183-423.208Z" transform="translate(-2490.046 466.337)" fill="#ef9223"></path><path d="M2513.219-423.473c-12.186,0-22.069-9.532-22.069-21.3s9.883-21.305,22.069-21.305,22.061,9.538,22.061,21.305S2525.4-423.473,2513.219-423.473Z" transform="translate(-2490.017 466.344)" fill="#ef9322"></path><path d="M2513.256-423.737c-12.1,0-21.909-9.463-21.909-21.149s9.812-21.149,21.909-21.149,21.9,9.469,21.9,21.149S2525.349-423.737,2513.256-423.737Z" transform="translate(-2489.987 466.351)" fill="#ef9422"></path><path d="M2513.293-424c-12.009,0-21.748-9.393-21.748-20.993s9.738-20.994,21.748-20.994,21.74,9.4,21.74,20.994S2525.3-424,2513.293-424Z" transform="translate(-2489.958 466.357)" fill="#ef9521"></path><path d="M2513.329-424.265c-11.919,0-21.586-9.324-21.586-20.838s9.667-20.839,21.586-20.839,21.58,9.329,21.58,20.839S2525.246-424.265,2513.329-424.265Z" transform="translate(-2489.929 466.364)" fill="#ef9621"></path><path d="M2513.366-424.529c-11.831,0-21.426-9.255-21.426-20.683s9.6-20.686,21.426-20.686,21.419,9.261,21.419,20.686S2525.195-424.529,2513.366-424.529Z" transform="translate(-2489.9 466.371)" fill="#ef9721"></path><path d="M2513.4-424.794c-11.742,0-21.265-9.185-21.265-20.528s9.522-20.529,21.265-20.529,21.26,9.191,21.26,20.529S2525.142-424.794,2513.4-424.794Z" transform="translate(-2489.871 466.378)" fill="#ef9820"></path><path d="M2513.44-425.058c-11.654,0-21.1-9.117-21.1-20.374s9.451-20.374,21.1-20.374,21.1,9.121,21.1,20.374S2525.09-425.058,2513.44-425.058Z" transform="translate(-2489.841 466.384)" fill="#ef9920"></path><path d="M2513.476-425.322c-11.564,0-20.944-9.048-20.944-20.219s9.379-20.22,20.944-20.22,20.938,9.052,20.938,20.22S2525.038-425.322,2513.476-425.322Z" transform="translate(-2489.812 466.391)" fill="#ef9a20"></path><path d="M2513.513-425.587c-11.476,0-20.782-8.978-20.782-20.062s9.307-20.065,20.782-20.065,20.777,8.982,20.777,20.065S2524.986-425.587,2513.513-425.587Z" transform="translate(-2489.784 466.398)" fill="#ef9b1f"></path><path d="M2513.55-425.851c-11.388,0-20.623-8.909-20.623-19.909s9.235-19.909,20.623-19.909,20.616,8.912,20.616,19.909S2524.936-425.851,2513.55-425.851Z" transform="translate(-2489.755 466.405)" fill="#ef9c1f"></path><path d="M2513.587-426.116c-11.3,0-20.462-8.839-20.462-19.753s9.162-19.755,20.462-19.755,20.455,8.845,20.455,19.755S2524.883-426.116,2513.587-426.116Z" transform="translate(-2489.725 466.411)" fill="#ef9d1e"></path><path d="M2513.623-426.379c-11.21,0-20.3-8.77-20.3-19.6s9.091-19.6,20.3-19.6,20.3,8.775,20.3,19.6S2524.831-426.379,2513.623-426.379Z" transform="translate(-2489.696 466.418)" fill="#ef9e1e"></path><path d="M2513.66-426.643c-11.121,0-20.14-8.7-20.14-19.443s9.019-19.445,20.14-19.445,20.135,8.7,20.135,19.445S2524.778-426.643,2513.66-426.643Z" transform="translate(-2489.667 466.425)" fill="#ef9f1e"></path><path d="M2513.7-426.908c-11.033,0-19.979-8.631-19.979-19.288s8.947-19.289,19.979-19.289,19.974,8.636,19.974,19.289S2524.728-426.908,2513.7-426.908Z" transform="translate(-2489.637 466.432)" fill="#efa01d"></path><path d="M2513.734-427.172c-10.944,0-19.818-8.562-19.818-19.133s8.874-19.134,19.818-19.134,19.813,8.566,19.813,19.134S2524.676-427.172,2513.734-427.172Z" transform="translate(-2489.608 466.439)" fill="#efa11d"></path><path d="M2513.77-427.436c-10.855,0-19.658-8.493-19.658-18.978s8.8-18.979,19.658-18.979,19.654,8.5,19.654,18.979S2524.623-427.436,2513.77-427.436Z" transform="translate(-2489.579 466.445)" fill="#efa21d"></path><path d="M2513.807-427.7c-10.767,0-19.5-8.423-19.5-18.823s8.73-18.824,19.5-18.824,19.491,8.427,19.491,18.824S2524.572-427.7,2513.807-427.7Z" transform="translate(-2489.55 466.452)" fill="#efa31c"></path><path d="M2513.844-427.965c-10.679,0-19.337-8.355-19.337-18.668s8.658-18.669,19.337-18.669,19.331,8.358,19.331,18.669S2524.52-427.965,2513.844-427.965Z" transform="translate(-2489.521 466.459)" fill="#efa41c"></path><path d="M2513.881-428.23c-10.589,0-19.175-8.285-19.175-18.512s8.586-18.514,19.175-18.514,19.171,8.288,19.171,18.514S2524.469-428.23,2513.881-428.23Z" transform="translate(-2489.492 466.466)" fill="#efa51b"></path><path d="M2513.918-428.494c-10.5,0-19.016-8.216-19.016-18.357s8.516-18.359,19.016-18.359,19.01,8.218,19.01,18.359S2524.416-428.494,2513.918-428.494Z" transform="translate(-2489.462 466.472)" fill="#efa61b"></path><path d="M2513.954-428.757c-10.412,0-18.854-8.147-18.854-18.2s8.442-18.2,18.854-18.2,18.849,8.149,18.849,18.2S2524.365-428.757,2513.954-428.757Z" transform="translate(-2489.433 466.479)" fill="#efa71b"></path><path d="M2513.991-429.022c-10.323,0-18.695-8.077-18.695-18.047s8.371-18.048,18.695-18.048,18.689,8.079,18.689,18.048S2524.313-429.022,2513.991-429.022Z" transform="translate(-2489.404 466.486)" fill="#efa81a"></path><path d="M2514.028-429.286c-10.234,0-18.532-8.008-18.532-17.892s8.3-17.895,18.532-17.895,18.529,8.01,18.529,17.895S2524.261-429.286,2514.028-429.286Z" transform="translate(-2489.375 466.493)" fill="#efa91a"></path><path d="M2514.064-429.55c-10.144,0-18.372-7.939-18.372-17.737s8.228-17.74,18.372-17.74,18.369,7.941,18.369,17.74S2524.209-429.55,2514.064-429.55Z" transform="translate(-2489.346 466.499)" fill="#efaa1a"></path><path d="M2514.1-429.815c-10.058,0-18.211-7.869-18.211-17.582s8.154-17.584,18.211-17.584,18.207,7.871,18.207,17.584S2524.156-429.815,2514.1-429.815Z" transform="translate(-2489.317 466.506)" fill="#efab19"></path><path d="M2514.138-430.079c-9.968,0-18.051-7.8-18.051-17.427s8.083-17.429,18.051-17.429,18.047,7.8,18.047,17.429S2524.1-430.079,2514.138-430.079Z" transform="translate(-2489.288 466.513)" fill="#efac19"></path><path d="M2514.175-430.344c-9.88,0-17.89-7.73-17.89-17.271s8.01-17.274,17.89-17.274,17.885,7.733,17.885,17.274S2524.054-430.344,2514.175-430.344Z" transform="translate(-2489.258 466.52)" fill="#efad18"></path><path d="M2514.211-430.608c-9.791,0-17.729-7.661-17.729-17.117s7.938-17.119,17.729-17.119,17.726,7.663,17.726,17.119S2524-430.608,2514.211-430.608Z" transform="translate(-2489.229 466.527)" fill="#efae18"></path><path d="M2514.249-430.871c-9.7,0-17.569-7.593-17.569-16.963s7.866-16.964,17.569-16.964,17.565,7.594,17.565,16.964S2523.949-430.871,2514.249-430.871Z" transform="translate(-2489.2 466.533)" fill="#efaf18"></path><path d="M2514.285-431.136c-9.613,0-17.408-7.523-17.408-16.807s7.794-16.809,17.408-16.809,17.405,7.525,17.405,16.809S2523.9-431.136,2514.285-431.136Z" transform="translate(-2489.172 466.54)" fill="#efb017"></path><path d="M2514.323-431.4c-9.525,0-17.249-7.454-17.249-16.652s7.723-16.654,17.249-16.654,17.244,7.455,17.244,16.654S2523.846-431.4,2514.323-431.4Z" transform="translate(-2489.141 466.547)" fill="#efb117"></path><path d="M2514.358-431.664c-9.437,0-17.086-7.385-17.086-16.5s7.65-16.5,17.086-16.5,17.084,7.385,17.084,16.5S2523.794-431.664,2514.358-431.664Z" transform="translate(-2489.113 466.553)" fill="#efb217"></path><path d="M2514.4-431.929c-9.347,0-16.926-7.315-16.926-16.342s7.579-16.343,16.926-16.343,16.924,7.315,16.924,16.343S2523.742-431.929,2514.4-431.929Z" transform="translate(-2489.084 466.56)" fill="#efb316"></path><path d="M2514.433-432.193c-9.259,0-16.766-7.246-16.766-16.187s7.506-16.188,16.766-16.188,16.761,7.246,16.761,16.188S2523.69-432.193,2514.433-432.193Z" transform="translate(-2489.055 466.567)" fill="#efb416"></path><path d="M2514.469-432.458c-9.169,0-16.6-7.176-16.6-16.031s7.436-16.034,16.6-16.034,16.6,7.177,16.6,16.034S2523.638-432.458,2514.469-432.458Z" transform="translate(-2489.025 466.574)" fill="#efb515"></path><path d="M2514.506-432.722c-9.082,0-16.444-7.107-16.444-15.876s7.362-15.879,16.444-15.879,16.441,7.107,16.441,15.879S2523.587-432.722,2514.506-432.722Z" transform="translate(-2488.996 466.581)" fill="#efb615"></path><path d="M2514.542-432.986c-8.993,0-16.283-7.038-16.283-15.722s7.291-15.723,16.283-15.723,16.281,7.038,16.281,15.723S2523.534-432.986,2514.542-432.986Z" transform="translate(-2488.967 466.587)" fill="#efb715"></path><path d="M2514.58-433.251c-8.9,0-16.123-6.968-16.123-15.566s7.219-15.568,16.123-15.568,16.12,6.968,16.12,15.568S2523.483-433.251,2514.58-433.251Z" transform="translate(-2488.938 466.594)" fill="#efb814"></path><path d="M2514.616-433.514c-8.815,0-15.962-6.9-15.962-15.411s7.146-15.413,15.962-15.413a15.692,15.692,0,0,1,15.96,15.413C2530.576-440.414,2523.431-433.514,2514.616-433.514Z" transform="translate(-2488.909 466.601)" fill="#efb914"></path><path d="M2514.654-433.778a15.536,15.536,0,0,1-15.8-15.256,15.535,15.535,0,0,1,15.8-15.259,15.533,15.533,0,0,1,15.8,15.259A15.534,15.534,0,0,1,2514.654-433.778Z" transform="translate(-2488.88 466.608)" fill="#efba14"></path><path d="M2514.69-434.043a15.378,15.378,0,0,1-15.641-15.1,15.377,15.377,0,0,1,15.641-15.1,15.375,15.375,0,0,1,15.638,15.1A15.376,15.376,0,0,1,2514.69-434.043Z" transform="translate(-2488.85 466.615)" fill="#efbb13"></path><path d="M2514.726-434.307a15.22,15.22,0,0,1-15.479-14.946,15.22,15.22,0,0,1,15.479-14.949,15.217,15.217,0,0,1,15.477,14.949A15.217,15.217,0,0,1,2514.726-434.307Z" transform="translate(-2488.821 466.621)" fill="#f0bb13"></path><path d="M2514.763-434.571a15.062,15.062,0,0,1-15.319-14.792,15.062,15.062,0,0,1,15.319-14.794,15.06,15.06,0,0,1,15.317,14.794A15.061,15.061,0,0,1,2514.763-434.571Z" transform="translate(-2488.792 466.628)" fill="#f0bc12"></path><path d="M2514.8-434.836a14.9,14.9,0,0,1-15.157-14.635A14.9,14.9,0,0,1,2514.8-464.11a14.9,14.9,0,0,1,15.157,14.639A14.9,14.9,0,0,1,2514.8-434.836Z" transform="translate(-2488.762 466.635)" fill="#f0bd12"></path><path d="M2514.836-435.1a14.746,14.746,0,0,1-15-14.482,14.745,14.745,0,0,1,15-14.483,14.744,14.744,0,0,1,15,14.483A14.745,14.745,0,0,1,2514.836-435.1Z" transform="translate(-2488.733 466.642)" fill="#f0be12"></path><path d="M2514.873-435.365a14.588,14.588,0,0,1-14.836-14.326,14.587,14.587,0,0,1,14.836-14.328,14.586,14.586,0,0,1,14.835,14.328A14.586,14.586,0,0,1,2514.873-435.365Z" transform="translate(-2488.705 466.648)" fill="#f0bf11"></path><path d="M2514.911-435.628a14.43,14.43,0,0,1-14.677-14.171,14.429,14.429,0,0,1,14.677-14.173,14.428,14.428,0,0,1,14.674,14.173A14.429,14.429,0,0,1,2514.911-435.628Z" transform="translate(-2488.675 466.655)" fill="#f0c011"></path><path d="M2514.948-435.892a14.272,14.272,0,0,1-14.515-14.017,14.271,14.271,0,0,1,14.515-14.018,14.27,14.27,0,0,1,14.513,14.018A14.271,14.271,0,0,1,2514.948-435.892Z" transform="translate(-2488.646 466.662)" fill="#f0c111"></path><path d="M2514.985-436.157a14.114,14.114,0,0,1-14.355-13.861,14.114,14.114,0,0,1,14.355-13.863,14.113,14.113,0,0,1,14.353,13.863A14.113,14.113,0,0,1,2514.985-436.157Z" transform="translate(-2488.617 466.669)" fill="#f0c210"></path><path d="M2515.021-436.421a13.956,13.956,0,0,1-14.194-13.706,13.955,13.955,0,0,1,14.194-13.708,13.955,13.955,0,0,1,14.194,13.708A13.955,13.955,0,0,1,2515.021-436.421Z" transform="translate(-2488.588 466.675)" fill="#f0c310"></path><path d="M2515.059-436.685a13.8,13.8,0,0,1-14.034-13.551,13.8,13.8,0,0,1,14.034-13.553,13.8,13.8,0,0,1,14.032,13.553A13.8,13.8,0,0,1,2515.059-436.685Z" transform="translate(-2488.56 466.682)" fill="#f0c40f"></path><path d="M2515.095-436.95a13.64,13.64,0,0,1-13.873-13.4,13.638,13.638,0,0,1,13.873-13.4,13.638,13.638,0,0,1,13.872,13.4A13.639,13.639,0,0,1,2515.095-436.95Z" transform="translate(-2488.53 466.689)" fill="#f0c50f"></path><path d="M2515.131-437.214a13.483,13.483,0,0,1-13.712-13.241,13.482,13.482,0,0,1,13.712-13.242,13.48,13.48,0,0,1,13.711,13.242A13.481,13.481,0,0,1,2515.131-437.214Z" transform="translate(-2488.5 466.696)" fill="#f0c60f"></path><path d="M2515.169-437.479a13.324,13.324,0,0,1-13.552-13.085,13.323,13.323,0,0,1,13.552-13.088,13.324,13.324,0,0,1,13.55,13.088A13.324,13.324,0,0,1,2515.169-437.479Z" transform="translate(-2488.471 466.702)" fill="#f0c70e"></path><path d="M2515.2-437.742a13.166,13.166,0,0,1-13.39-12.93,13.165,13.165,0,0,1,13.39-12.934,13.164,13.164,0,0,1,13.39,12.934A13.165,13.165,0,0,1,2515.2-437.742Z" transform="translate(-2488.442 466.709)" fill="#f0c80e"></path><path d="M2515.242-438.006a13.008,13.008,0,0,1-13.229-12.776,13.007,13.007,0,0,1,13.229-12.778,13.008,13.008,0,0,1,13.23,12.778A13.009,13.009,0,0,1,2515.242-438.006Z" transform="translate(-2488.413 466.716)" fill="#f0c90e"></path><path d="M2515.278-438.271a12.85,12.85,0,0,1-13.069-12.62,12.849,12.849,0,0,1,13.069-12.623,12.849,12.849,0,0,1,13.069,12.623A12.85,12.85,0,0,1,2515.278-438.271Z" transform="translate(-2488.384 466.723)" fill="#f0ca0d"></path><path d="M2515.315-438.535A12.692,12.692,0,0,1,2502.407-451a12.69,12.69,0,0,1,12.909-12.468A12.691,12.691,0,0,1,2528.223-451,12.693,12.693,0,0,1,2515.315-438.535Z" transform="translate(-2488.354 466.73)" fill="#f0cb0d"></path><path d="M2515.351-438.8a12.535,12.535,0,0,1-12.747-12.31,12.533,12.533,0,0,1,12.747-12.313,12.533,12.533,0,0,1,12.748,12.313A12.534,12.534,0,0,1,2515.351-438.8Z" transform="translate(-2488.326 466.736)" fill="#f0cc0c"></path><path d="M2515.389-439.064a12.376,12.376,0,0,1-12.587-12.155,12.375,12.375,0,0,1,12.587-12.158,12.375,12.375,0,0,1,12.586,12.158A12.376,12.376,0,0,1,2515.389-439.064Z" transform="translate(-2488.296 466.743)" fill="#f0cd0c"></path><path d="M2515.426-439.328a12.219,12.219,0,0,1-12.427-12,12.217,12.217,0,0,1,12.427-12,12.216,12.216,0,0,1,12.426,12A12.218,12.218,0,0,1,2515.426-439.328Z" transform="translate(-2488.267 466.75)" fill="#f0ce0c"></path><path d="M2515.461-439.593a12.059,12.059,0,0,1-12.264-11.844,12.058,12.058,0,0,1,12.264-11.848,12.06,12.06,0,0,1,12.267,11.848A12.061,12.061,0,0,1,2515.461-439.593Z" transform="translate(-2488.237 466.757)" fill="#f0cf0b"></path><path d="M2515.5-439.857a11.9,11.9,0,0,1-12.1-11.69,11.9,11.9,0,0,1,12.1-11.693,11.9,11.9,0,0,1,12.1,11.693A11.9,11.9,0,0,1,2515.5-439.857Z" transform="translate(-2488.209 466.763)" fill="#f0d00b"></path><path d="M2515.535-440.12a11.745,11.745,0,0,1-11.943-11.536,11.742,11.742,0,0,1,11.943-11.537,11.743,11.743,0,0,1,11.946,11.537A11.746,11.746,0,0,1,2515.535-440.12Z" transform="translate(-2488.18 466.77)" fill="#f0d10b"></path><path d="M2515.573-440.385a11.587,11.587,0,0,1-11.784-11.38,11.584,11.584,0,0,1,11.784-11.382,11.584,11.584,0,0,1,11.784,11.382A11.587,11.587,0,0,1,2515.573-440.385Z" transform="translate(-2488.15 466.777)" fill="#f0d20a"></path><path d="M2515.608-440.649a11.428,11.428,0,0,1-11.621-11.225,11.426,11.426,0,0,1,11.621-11.228,11.428,11.428,0,0,1,11.624,11.228A11.429,11.429,0,0,1,2515.608-440.649Z" transform="translate(-2488.122 466.783)" fill="#f0d30a"></path><path d="M2515.647-440.913a11.271,11.271,0,0,1-11.463-11.07,11.269,11.269,0,0,1,11.463-11.073,11.27,11.27,0,0,1,11.462,11.073A11.272,11.272,0,0,1,2515.647-440.913Z" transform="translate(-2488.093 466.79)" fill="#f0d409"></path><path d="M2515.683-441.178a11.112,11.112,0,0,1-11.3-10.915,11.11,11.11,0,0,1,11.3-10.917,11.11,11.11,0,0,1,11.3,10.917A11.113,11.113,0,0,1,2515.683-441.178Z" transform="translate(-2488.064 466.797)" fill="#f0d509"></path><path d="M2515.721-441.442a10.956,10.956,0,0,1-11.142-10.76,10.953,10.953,0,0,1,11.142-10.762,10.952,10.952,0,0,1,11.14,10.762A10.955,10.955,0,0,1,2515.721-441.442Z" transform="translate(-2488.034 466.804)" fill="#f0d609"></path><path d="M2515.756-441.707a10.8,10.8,0,0,1-10.979-10.6,10.794,10.794,0,0,1,10.979-10.607,10.8,10.8,0,0,1,10.982,10.607A10.8,10.8,0,0,1,2515.756-441.707Z" transform="translate(-2488.005 466.811)" fill="#f0d708"></path><path d="M2515.794-441.971a10.639,10.639,0,0,1-10.819-10.449,10.636,10.636,0,0,1,10.819-10.452,10.637,10.637,0,0,1,10.819,10.452A10.64,10.64,0,0,1,2515.794-441.971Z" transform="translate(-2487.976 466.818)" fill="#f0d808"></path><path d="M2515.83-442.234a10.481,10.481,0,0,1-10.658-10.3,10.479,10.479,0,0,1,10.658-10.3,10.48,10.48,0,0,1,10.66,10.3A10.483,10.483,0,0,1,2515.83-442.234Z" transform="translate(-2487.947 466.824)" fill="#f0d908"></path><path d="M2515.866-442.5a10.324,10.324,0,0,1-10.5-10.139,10.321,10.321,0,0,1,10.5-10.143,10.322,10.322,0,0,1,10.5,10.143A10.325,10.325,0,0,1,2515.866-442.5Z" transform="translate(-2487.917 466.831)" fill="#f0da07"></path><path d="M2515.9-442.763a10.165,10.165,0,0,1-10.337-9.984,10.162,10.162,0,0,1,10.337-9.988,10.163,10.163,0,0,1,10.338,9.988A10.166,10.166,0,0,1,2515.9-442.763Z" transform="translate(-2487.888 466.838)" fill="#f0db07"></path><path d="M2515.941-443.027a10.008,10.008,0,0,1-10.177-9.829,10.005,10.005,0,0,1,10.177-9.833,10.007,10.007,0,0,1,10.179,9.833A10.01,10.01,0,0,1,2515.941-443.027Z" transform="translate(-2487.86 466.845)" fill="#f0dc06"></path><path d="M2515.977-443.292a9.849,9.849,0,0,1-10.015-9.674,9.846,9.846,0,0,1,10.015-9.677,9.848,9.848,0,0,1,10.017,9.677A9.851,9.851,0,0,1,2515.977-443.292Z" transform="translate(-2487.831 466.851)" fill="#f0dd06"></path><path d="M2516.014-443.556a9.692,9.692,0,0,1-9.854-9.519,9.687,9.687,0,0,1,9.854-9.522,9.689,9.689,0,0,1,9.858,9.522A9.693,9.693,0,0,1,2516.014-443.556Z" transform="translate(-2487.801 466.858)" fill="#f0de06"></path><path d="M2516.051-443.821a9.533,9.533,0,0,1-9.694-9.363,9.531,9.531,0,0,1,9.694-9.368,9.532,9.532,0,0,1,9.7,9.368A9.535,9.535,0,0,1,2516.051-443.821Z" transform="translate(-2487.772 466.865)" fill="#f0df05"></path><path d="M2516.087-444.085a9.376,9.376,0,0,1-9.533-9.209,9.373,9.373,0,0,1,9.533-9.212,9.374,9.374,0,0,1,9.536,9.212A9.377,9.377,0,0,1,2516.087-444.085Z" transform="translate(-2487.743 466.872)" fill="#f0e005"></path><path d="M2516.125-444.349a9.218,9.218,0,0,1-9.372-9.055,9.214,9.214,0,0,1,9.372-9.057,9.215,9.215,0,0,1,9.375,9.057A9.219,9.219,0,0,1,2516.125-444.349Z" transform="translate(-2487.714 466.878)" fill="#f0e105"></path><path d="M2516.161-444.613a9.06,9.06,0,0,1-9.212-8.9,9.057,9.057,0,0,1,9.212-8.9,9.059,9.059,0,0,1,9.215,8.9A9.062,9.062,0,0,1,2516.161-444.613Z" transform="translate(-2487.684 466.885)" fill="#f0e204"></path><path d="M2516.2-444.877a8.9,8.9,0,0,1-9.05-8.744,8.9,8.9,0,0,1,9.05-8.747,8.9,8.9,0,0,1,9.055,8.747A8.9,8.9,0,0,1,2516.2-444.877Z" transform="translate(-2487.655 466.892)" fill="#f0e304"></path><path d="M2516.235-445.141a8.745,8.745,0,0,1-8.891-8.59,8.74,8.74,0,0,1,8.891-8.591,8.742,8.742,0,0,1,8.894,8.591A8.747,8.747,0,0,1,2516.235-445.141Z" transform="translate(-2487.626 466.899)" fill="#f0e403"></path><path d="M2516.27-445.406a8.585,8.585,0,0,1-8.728-8.434,8.581,8.581,0,0,1,8.728-8.437A8.584,8.584,0,0,1,2525-453.84,8.588,8.588,0,0,1,2516.27-445.406Z" transform="translate(-2487.597 466.905)" fill="#f0e503"></path><path d="M2516.309-445.67a8.428,8.428,0,0,1-8.569-8.279,8.425,8.425,0,0,1,8.569-8.282,8.427,8.427,0,0,1,8.573,8.282A8.431,8.431,0,0,1,2516.309-445.67Z" transform="translate(-2487.568 466.912)" fill="#f0e603"></path><path d="M2516.344-445.934a8.271,8.271,0,0,1-8.407-8.124,8.266,8.266,0,0,1,8.407-8.127,8.268,8.268,0,0,1,8.412,8.127A8.273,8.273,0,0,1,2516.344-445.934Z" transform="translate(-2487.538 466.919)" fill="#f0e702"></path><path d="M2524.633-454.168a8.115,8.115,0,0,1-8.251,7.969,8.113,8.113,0,0,1-8.248-7.969,8.109,8.109,0,0,1,8.248-7.971A8.11,8.11,0,0,1,2524.633-454.168Z" transform="translate(-2487.509 466.926)" fill="#f0e802"></path></g><g transform="translate(42.12)" opacity="0.2"><g transform="translate(0 36.383)"><path d="M2418.185-446.664" transform="translate(-2418.185 446.664)" fill="none" stroke="#707070" stroke-miterlimit="10" stroke-width="0.25" style="mix-blend-mode:screen;isolation:isolate"></path></g><g transform="translate(31.474)"><path d="M2445.611-478.367" transform="translate(-2445.611 478.367)" fill="none" stroke="#707070" stroke-miterlimit="10" stroke-width="0.25" style="mix-blend-mode:screen;isolation:isolate"></path></g><g transform="translate(0 36.383)"><path d="M2418.185-446.664" transform="translate(-2418.185 446.664)" fill="#5a595c"></path><path d="M2418.185-446.664" transform="translate(-2418.185 446.664)" fill="#5a595c"></path></g><g transform="translate(31.474)"><path d="M2445.611-478.367" transform="translate(-2445.611 478.367)" fill="#5a595c"></path><path d="M2445.611-478.367" transform="translate(-2445.611 478.367)" fill="#5a595c"></path></g></g><path d="M2449.66-438.969" transform="translate(-2371.42 484.182)" fill="#5a595c"></path><path d="M2499.253-441.957" transform="translate(-2364.099 483.741)" fill="#5a595c"></path><path d="M2429.258-471.394l14.562,55.444h-7.129l-8.809-33.88-15.176,35.92-15.2-36.223-8.949,34.183h-7.072l14.565-55.444,16.658,39.662Z" transform="translate(-2381.483 479.396)" fill="#5a595c"></path><path d="M2485.681-467.414v8.234c-5.724-2.822-11.013-4.221-15.832-4.221a21.984,21.984,0,0,0-15.635,5.975,19.5,19.5,0,0,0-6.349,14.718,19.3,19.3,0,0,0,6.513,14.844q6.473,5.947,16.268,5.946c4.721,0,9.748-1.488,15.035-4.464v8.313a32.938,32.938,0,0,1-15.675,3.839,29.505,29.505,0,0,1-21.126-8.372,26.858,26.858,0,0,1-8.774-20.182,26.55,26.55,0,0,1,8.611-19.878,29.023,29.023,0,0,1,20.8-8.258A41.455,41.455,0,0,1,2485.681-467.414Z" transform="translate(-2372.83 479.466)" fill="#5a595c"></path><g transform="translate(137.181 24.962)"><rect width="20.745" height="22.45" fill="#fff"></rect></g><path d="M2485.392-451.169l9.235-2.288s1.018-3.015,6.117-7.559h-10.052A19.635,19.635,0,0,0,2485.392-451.169Z" transform="translate(-2366.146 480.928)" fill="#5a595c"></path><path d="M2485.392-439.506l9.094,1.534s1.393,3.3,6.7,7.605l-10.155.7A21.664,21.664,0,0,1,2485.392-439.506Z" transform="translate(-2366.146 484.103)" fill="#5a595c"></path><path d="M2534.7-462.642a28.514,28.514,0,0,0-20.5-8.278,29.275,29.275,0,0,0-20.9,8.216,26.746,26.746,0,0,0-7.841,12.882l9.117-2.387a21.544,21.544,0,0,1,3.927-5.156,20.911,20.911,0,0,1,15.108-6.132,21.782,21.782,0,0,1,15.615,6.039,19.611,19.611,0,0,1,6.358,14.85,19.84,19.84,0,0,1-6.24,14.624,20.5,20.5,0,0,1-14.862,6.157,22.292,22.292,0,0,1-15.81-6.036,20.331,20.331,0,0,1-4.4-5.821l-8.678-1.55a27.758,27.758,0,0,0,7.583,12.61,28.533,28.533,0,0,0,20.771,8.395,28.674,28.674,0,0,0,20.866-8.326,27.467,27.467,0,0,0,8.5-20.393A26.4,26.4,0,0,0,2534.7-462.642Z" transform="translate(-2366.135 479.466)" fill="#5a595c"></path><g transform="translate(89.916 25.005)"><path d="M2507.752-434.177l-47.918-9.132,47.918-13.27Z" transform="translate(-2459.834 456.578)" fill="#5a595c"></path></g></g><g transform="translate(0 68.106)"><g transform="translate(0.258 12.867)"><path d="M2381.587-407.728h1.45l1.059,4.089,1.06-4.089h1.4l.729,6.823h-1.163l-.5-4.8-1.245,4.8h-.554l-1.278-4.843-.472,4.843h-1.182Z" transform="translate(-2380.892 407.821)" fill="#59595c"></path><path d="M2387.243-407.728h3.186v1.351h-1.968V-405h1.968v1.33h-1.968v1.414h1.968v1.351h-3.186Z" transform="translate(-2379.955 407.821)" fill="#59595c"></path><path d="M2390.9-407.728h1.931a2.431,2.431,0,0,1,1.993.941,3.844,3.844,0,0,1,.753,2.478,3.723,3.723,0,0,1-.777,2.473,2.563,2.563,0,0,1-2.07.931h-1.83Zm1.229,1.29v4.213h.483a1.654,1.654,0,0,0,1.233-.494,2.3,2.3,0,0,0,.484-1.647,2.877,2.877,0,0,0-.233-1.188,1.286,1.286,0,0,0-.675-.7,2.188,2.188,0,0,0-.844-.184Z" transform="translate(-2379.415 407.821)" fill="#59595c"></path><path d="M2395.81-407.728h3.184v1.351h-1.963V-405h1.963v1.33h-1.963v1.414h1.963v1.351h-3.184Z" transform="translate(-2378.69 407.821)" fill="#59595c"></path><path d="M2399.149-407.728h3.806v1.449h-1.3v5.373h-1.22v-5.373h-1.289Z" transform="translate(-2378.197 407.821)" fill="#59595c"></path><path d="M2404.638-407.728h.946l2.3,6.823h-1.227l-.453-1.34h-2.173l-.443,1.34h-1.221Zm.473,2.233-.665,2.012h1.343Z" transform="translate(-2377.722 407.821)" fill="#59595c"></path><path d="M2407.916-407.728h1.864a1.732,1.732,0,0,1,1.344.541,2.085,2.085,0,0,1,.494,1.459,2.954,2.954,0,0,1-.226,1.091,1.72,1.72,0,0,1-.837.887l1.585,2.845h-1.4l-1.464-2.64h-.139v2.64h-1.219Zm1.228,1.216v1.776h.265a.838.838,0,0,0,.955-.941.789.789,0,0,0-.248-.61.993.993,0,0,0-.689-.225Z" transform="translate(-2376.903 407.821)" fill="#59595c"></path><path d="M2412.359-407.728h1.219v6.823h-1.219Z" transform="translate(-2376.247 407.821)" fill="#59595c"></path><path d="M2416.414-407.728h.944l2.3,6.823h-1.227l-.454-1.34h-2.171l-.444,1.34h-1.22Zm.471,2.233-.665,2.012h1.344Z" transform="translate(-2375.984 407.821)" fill="#59595c"></path><path d="M2423.45-407.728h1.193v6.823h-1.186l-2.588-4.416v4.416h-1.219v-6.823h1.206l2.595,4.386Z" transform="translate(-2375.172 407.821)" fill="#59595c"></path><path d="M2431.289-407.352v1.663a2.88,2.88,0,0,0-1.606-.664,1.3,1.3,0,0,0-1.1.57,2.573,2.573,0,0,0-.413,1.538,2.284,2.284,0,0,0,.435,1.463,1.41,1.41,0,0,0,1.163.549,2.841,2.841,0,0,0,1.525-.619v1.652a4.676,4.676,0,0,1-1.658.4,2.4,2.4,0,0,1-1.941-1.01,3.865,3.865,0,0,1-.8-2.466,3.9,3.9,0,0,1,.813-2.506,2.442,2.442,0,0,1,1.976-1.026A3.422,3.422,0,0,1,2431.289-407.352Z" transform="translate(-2374.102 407.809)" fill="#59595c"></path><path d="M2431.364-404.31a3.74,3.74,0,0,1,.828-2.5,2.5,2.5,0,0,1,1.969-.986,2.594,2.594,0,0,1,2.082.991,3.782,3.782,0,0,1,.823,2.5,3.813,3.813,0,0,1-.814,2.495,2.548,2.548,0,0,1-2.052.993,2.5,2.5,0,0,1-2.036-.988A3.856,3.856,0,0,1,2431.364-404.31Zm2.852-2.119a1.3,1.3,0,0,0-1.145.591,2.62,2.62,0,0,0-.437,1.569,2.473,2.473,0,0,0,.444,1.508,1.347,1.347,0,0,0,1.122.6,1.369,1.369,0,0,0,1.148-.589,2.551,2.551,0,0,0,.438-1.557,2.5,2.5,0,0,0-.428-1.527A1.388,1.388,0,0,0,2434.216-406.429Z" transform="translate(-2373.442 407.812)" fill="#59595c"></path><path d="M2440.968-407.728h1.194v6.823h-1.188l-2.587-4.416v4.416h-1.219v-6.823h1.2l2.6,4.386Z" transform="translate(-2372.586 407.821)" fill="#59595c"></path><path d="M2442.518-407.728h3.187v1.319h-1.975v1.394h1.975v1.33h-1.967v2.779h-1.22Z" transform="translate(-2371.795 407.821)" fill="#59595c"></path><path d="M2446.2-407.728h3.186v1.351h-1.967V-405h1.967v1.33h-1.967v1.414h1.967v1.351H2446.2Z" transform="translate(-2371.251 407.821)" fill="#59595c"></path><path d="M2449.868-407.728h1.865a1.731,1.731,0,0,1,1.344.541,2.078,2.078,0,0,1,.494,1.459,2.916,2.916,0,0,1-.227,1.091,1.72,1.72,0,0,1-.837.887l1.585,2.845h-1.4l-1.465-2.64h-.14v2.64h-1.22Zm1.229,1.216v1.776h.263a.839.839,0,0,0,.958-.941.784.784,0,0,0-.25-.61,1,1,0,0,0-.691-.225Z" transform="translate(-2370.711 407.821)" fill="#59595c"></path><path d="M2454.372-407.728h3.184v1.351h-1.965V-405h1.965v1.33h-1.965v1.414h1.965v1.351h-3.184Z" transform="translate(-2370.047 407.821)" fill="#59595c"></path><path d="M2461.8-407.728h1.192v6.823H2461.8l-2.587-4.416v4.416H2458v-6.823h1.206l2.6,4.386Z" transform="translate(-2369.511 407.821)" fill="#59595c"></path><path d="M2467.59-407.352v1.663a2.889,2.889,0,0,0-1.607-.664,1.3,1.3,0,0,0-1.1.57,2.575,2.575,0,0,0-.415,1.538,2.289,2.289,0,0,0,.437,1.463,1.409,1.409,0,0,0,1.163.549,2.846,2.846,0,0,0,1.525-.619v1.652a4.688,4.688,0,0,1-1.659.4,2.393,2.393,0,0,1-1.939-1.01,3.851,3.851,0,0,1-.8-2.466,3.928,3.928,0,0,1,.809-2.506,2.449,2.449,0,0,1,1.978-1.026A3.427,3.427,0,0,1,2467.59-407.352Z" transform="translate(-2368.744 407.809)" fill="#59595c"></path><path d="M2467.832-407.728h3.186v1.351h-1.966V-405h1.966v1.33h-1.966v1.414h1.966v1.351h-3.186Z" transform="translate(-2368.059 407.821)" fill="#59595c"></path><path d="M2474.736-407.1l-.758,1a1.894,1.894,0,0,0-.863-.427.434.434,0,0,0-.348.186.664.664,0,0,0-.145.438q0,.5.757.872a5.017,5.017,0,0,1,.84.517,1.793,1.793,0,0,1,.477.643,2.059,2.059,0,0,1,.192.887,2.2,2.2,0,0,1-.59,1.527,1.819,1.819,0,0,1-1.391.65,2.374,2.374,0,0,1-1.737-1l.8-1.127a1.431,1.431,0,0,0,1.008.669.569.569,0,0,0,.422-.235.749.749,0,0,0,.2-.5q0-.534-.934-.94a2.85,2.85,0,0,1-.758-.441,1.553,1.553,0,0,1-.378-.6,2.193,2.193,0,0,1-.154-.8,2.176,2.176,0,0,1,.492-1.476,1.618,1.618,0,0,1,1.284-.566A2.032,2.032,0,0,1,2474.736-407.1Z" transform="translate(-2367.567 407.809)" fill="#59595c"></path><path d="M2477.057-404.31a3.741,3.741,0,0,1,.83-2.5,2.5,2.5,0,0,1,1.967-.986,2.592,2.592,0,0,1,2.082.991,3.782,3.782,0,0,1,.824,2.5,3.813,3.813,0,0,1-.815,2.495,2.545,2.545,0,0,1-2.051.993,2.506,2.506,0,0,1-2.035-.988A3.851,3.851,0,0,1,2477.057-404.31Zm2.852-2.119a1.3,1.3,0,0,0-1.144.591,2.63,2.63,0,0,0-.436,1.569,2.457,2.457,0,0,0,.445,1.508,1.342,1.342,0,0,0,1.119.6,1.373,1.373,0,0,0,1.15-.589,2.567,2.567,0,0,0,.436-1.557,2.492,2.492,0,0,0-.429-1.527A1.386,1.386,0,0,0,2479.909-406.429Z" transform="translate(-2366.697 407.812)" fill="#59595c"></path><path d="M2482.9-407.728h1.865a1.733,1.733,0,0,1,1.344.541,2.083,2.083,0,0,1,.493,1.459,2.918,2.918,0,0,1-.228,1.091,1.716,1.716,0,0,1-.834.887l1.585,2.845h-1.405l-1.464-2.64h-.136v2.64H2482.9Zm1.229,1.216v1.776h.263a.838.838,0,0,0,.956-.941.782.782,0,0,0-.249-.61.988.988,0,0,0-.689-.225Z" transform="translate(-2365.835 407.821)" fill="#59595c"></path><path d="M2492.018-406.236l-.81.916a1.99,1.99,0,0,0-.629-.794,1.356,1.356,0,0,0-.784-.262,1.445,1.445,0,0,0-1.154.608,2.22,2.22,0,0,0-.49,1.433,2.308,2.308,0,0,0,.49,1.488,1.465,1.465,0,0,0,1.18.612,1.3,1.3,0,0,0,.719-.228,1.6,1.6,0,0,0,.56-.858h-1.341v-1.33h2.612v.884a3.312,3.312,0,0,1-.387,1.463,2.592,2.592,0,0,1-1.023,1.142,2.553,2.553,0,0,1-1.279.362,2.432,2.432,0,0,1-1.978-1.024,3.957,3.957,0,0,1-.807-2.529,3.744,3.744,0,0,1,.828-2.443,2.507,2.507,0,0,1,2-1.012A2.5,2.5,0,0,1,2492.018-406.236Z" transform="translate(-2365.245 407.809)" fill="#59595c"></path><path d="M2494.464-407.728h.945l2.3,6.823h-1.226l-.453-1.34h-2.171l-.443,1.34H2492.2Zm.472,2.233-.665,2.012h1.345Z" transform="translate(-2364.463 407.821)" fill="#59595c"></path><path d="M2501.5-407.728h1.194v6.823h-1.187l-2.588-4.416v4.416H2497.7v-6.823h1.2l2.6,4.386Z" transform="translate(-2363.651 407.821)" fill="#59595c"></path><path d="M2502.99-407.728h1.221v6.823h-1.221Z" transform="translate(-2362.87 407.821)" fill="#59595c"></path><path d="M2505.149-407.728h4.1l-2.552,5.41h2.463v1.413h-4.35l2.569-5.419h-2.232Z" transform="translate(-2362.601 407.821)" fill="#59595c"></path><path d="M2509.473-407.728h1.22v6.823h-1.22Z" transform="translate(-2361.913 407.821)" fill="#59595c"></path><path d="M2515.273-407.728h1.194v6.823h-1.187l-2.588-4.416v4.416h-1.222v-6.823h1.207l2.6,4.386Z" transform="translate(-2361.618 407.821)" fill="#59595c"></path><path d="M2521.667-406.236l-.811.916a2,2,0,0,0-.628-.794,1.35,1.35,0,0,0-.785-.262,1.45,1.45,0,0,0-1.155.608,2.215,2.215,0,0,0-.489,1.433,2.3,2.3,0,0,0,.489,1.488,1.469,1.469,0,0,0,1.178.612,1.3,1.3,0,0,0,.724-.228,1.6,1.6,0,0,0,.558-.858h-1.341v-1.33h2.612v.884a3.3,3.3,0,0,1-.387,1.463,2.577,2.577,0,0,1-1.022,1.142,2.56,2.56,0,0,1-1.28.362,2.433,2.433,0,0,1-1.978-1.024,3.958,3.958,0,0,1-.806-2.529,3.725,3.725,0,0,1,.831-2.443,2.5,2.5,0,0,1,2-1.012A2.5,2.5,0,0,1,2521.667-406.236Z" transform="translate(-2360.869 407.809)" fill="#59595c"></path><path d="M2524.178-407.728h1.211v5.351h1.668v1.471h-2.879Z" transform="translate(-2359.742 407.821)" fill="#59595c"></path><path d="M2527.459-407.728h1.212v5.351h1.67v1.471h-2.881Z" transform="translate(-2359.259 407.821)" fill="#59595c"></path><path d="M2534.818-407.352v1.663a2.9,2.9,0,0,0-1.609-.664,1.3,1.3,0,0,0-1.1.57,2.58,2.58,0,0,0-.413,1.538,2.3,2.3,0,0,0,.435,1.463,1.416,1.416,0,0,0,1.165.549,2.852,2.852,0,0,0,1.527-.619v1.652a4.694,4.694,0,0,1-1.66.4,2.4,2.4,0,0,1-1.941-1.01,3.866,3.866,0,0,1-.8-2.466,3.9,3.9,0,0,1,.813-2.506,2.444,2.444,0,0,1,1.976-1.026A3.447,3.447,0,0,1,2534.818-407.352Z" transform="translate(-2358.821 407.809)" fill="#59595c"></path></g><path d="M2534.264-412.469a1.564,1.564,0,0,1-.136.728.528.528,0,0,1-.5.3.523.523,0,0,1-.49-.3,1.6,1.6,0,0,1-.143-.731v-5.572a1.49,1.49,0,0,1,.136-.7.538.538,0,0,1,.5-.282.532.532,0,0,1,.5.282,1.43,1.43,0,0,1,.136.7Z" transform="translate(-2358.183 419.021)" fill="#59595c"></path><path d="M2532.533-412.4a1.575,1.575,0,0,1-.118.677.475.475,0,0,1-.454.286h-2.535a.535.535,0,0,1-.4-.169.56.56,0,0,1-.175-.4v-.569h2.261a.237.237,0,0,0,.205-.11.589.589,0,0,0,.062-.293l.008-5.128a1.447,1.447,0,0,1,.117-.651.472.472,0,0,1,.453-.269.473.473,0,0,1,.452.269,1.467,1.467,0,0,1,.119.651Z" transform="translate(-2358.794 419.021)" fill="#59595c"></path><path d="M2529.591-412.889a1.623,1.623,0,0,1-.116.677.487.487,0,0,1-.459.286h-2.531a.54.54,0,0,1-.4-.169.531.531,0,0,1-.171-.4v-.569l2.254-.007a.224.224,0,0,0,.2-.108.553.553,0,0,0,.068-.288c0-.118,0-.275,0-.465s0-.476,0-.871a1.3,1.3,0,0,1,.126-.651.462.462,0,0,1,.442-.265.476.476,0,0,1,.456.265,1.467,1.467,0,0,1,.12.651Zm-.457,2.167a.556.556,0,0,1-.169.4.532.532,0,0,1-.4.17.545.545,0,0,1-.4-.17.527.527,0,0,1-.17-.4.528.528,0,0,1,.17-.4.534.534,0,0,1,.4-.168.529.529,0,0,1,.4.165.548.548,0,0,1,.169.4Z" transform="translate(-2359.227 419.509)" fill="#59595c"></path><path d="M2527.674-414.216a2.048,2.048,0,0,1-.69,1.557,3.03,3.03,0,0,1-2.149.733h-4.093a.549.549,0,0,1-.4-.169.56.56,0,0,1-.183-.407v-.558h4.558a3.185,3.185,0,0,0,1.229-.189.869.869,0,0,0,.553-.663.4.4,0,0,0,.015-.131.615.615,0,0,0-.335-.547,1.655,1.655,0,0,0-.857-.205,3.728,3.728,0,0,0-1,.1.432.432,0,0,0-.344.426c0,.1-.088.212-.258.334a.864.864,0,0,1-.469.185.543.543,0,0,1-.4-.171.507.507,0,0,1-.163-.348,1.194,1.194,0,0,1,.78-1.034,4,4,0,0,1,1.863-.407,2.883,2.883,0,0,1,1.624.465,1.284,1.284,0,0,1,.716,1.033Z" transform="translate(-2360.078 419.509)" fill="#59595c"></path><path d="M2520.931-412.98c.007.083.012.174.012.285a2.957,2.957,0,0,1-.7,1.894,2.612,2.612,0,0,1-1.662,1.032,3.626,3.626,0,0,1-.524.04,3.957,3.957,0,0,1-1.264-.2c-.378-.128-.574-.274-.574-.43,0-.12.125-.226.368-.3a5.315,5.315,0,0,1,.855-.149c.567-.065.891-.1.981-.119a1.587,1.587,0,0,0,.95-.594,1.783,1.783,0,0,0,.463-1.17v-.133c-.007-.044-.014-.069-.017-.086a3.1,3.1,0,0,0-.164-.668,2.067,2.067,0,0,0-.246-.426c-.116-.16-.234-.317-.341-.477a1.022,1.022,0,0,1-.138-.282,1.238,1.238,0,0,1-.053-.336.682.682,0,0,1,.067-.3.47.47,0,0,1,.2-.222.7.7,0,0,1,.345-.1.669.669,0,0,1,.334.08.8.8,0,0,1,.279.23,3.171,3.171,0,0,1,.549,1.059,7.738,7.738,0,0,1,.285,1.37Z" transform="translate(-2360.66 419.509)" fill="#59595c"></path><path d="M2513.655-412.469a1.563,1.563,0,0,1-.137.728.521.521,0,0,1-.5.3.52.52,0,0,1-.493-.3,1.563,1.563,0,0,1-.144-.731v-5.572a1.452,1.452,0,0,1,.141-.7.524.524,0,0,1,.5-.282.522.522,0,0,1,.5.282,1.429,1.429,0,0,1,.137.7Z" transform="translate(-2361.224 419.021)" fill="#59595c"></path><path d="M2511.927-412.4a1.7,1.7,0,0,1-.113.677.491.491,0,0,1-.458.286h-2.533a.552.552,0,0,1-.4-.169.557.557,0,0,1-.17-.4v-.569h2.26a.221.221,0,0,0,.2-.11.532.532,0,0,0,.07-.293l.008-5.128a1.494,1.494,0,0,1,.116-.651.474.474,0,0,1,.452-.269.48.48,0,0,1,.453.269,1.561,1.561,0,0,1,.118.651Z" transform="translate(-2361.835 419.021)" fill="#59595c"></path><path d="M2509.285-412.785a1.764,1.764,0,0,1-.6,1.362,1.889,1.889,0,0,1-1.284.5,1.813,1.813,0,0,1-.981-.29,1.56,1.56,0,0,1-.7-.87h-1.972a.559.559,0,0,1-.406-.169.559.559,0,0,1-.171-.4v-.569h2.429a1.579,1.579,0,0,1,.652-1.017,1.87,1.87,0,0,1,1.159-.434,1.822,1.822,0,0,1,1.279.511,1.779,1.779,0,0,1,.6,1.369Zm-1.135-.042a.653.653,0,0,0-.219-.5.774.774,0,0,0-.532-.2.649.649,0,0,0-.5.223.744.744,0,0,0-.2.534.647.647,0,0,0,.216.495.759.759,0,0,0,.531.2.66.66,0,0,0,.51-.211.772.772,0,0,0,.2-.536Z" transform="translate(-2362.585 419.664)" fill="#59595c"></path><path d="M2504.074-416.87a.56.56,0,0,1-.165.4.561.561,0,0,1-.407.171.54.54,0,0,1-.4-.171.544.544,0,0,1-.171-.4.552.552,0,0,1,.171-.407.547.547,0,0,1,.4-.164.568.568,0,0,1,.407.164.56.56,0,0,1,.165.407Zm-1.562,0a.546.546,0,0,1-.163.4.564.564,0,0,1-.407.171.569.569,0,0,1-.406-.171.561.561,0,0,1-.164-.4.57.57,0,0,1,.164-.407.573.573,0,0,1,.406-.164.572.572,0,0,1,.407.164.547.547,0,0,1,.163.407Zm1.556,4.236a1.615,1.615,0,0,1-.117.677.482.482,0,0,1-.458.286h-3.8a.551.551,0,0,1-.4-.169.555.555,0,0,1-.171-.4v-.569l3.526-.007a.238.238,0,0,0,.206-.108.6.6,0,0,0,.062-.288c0-.118,0-.275,0-.465s0-.476,0-.871a1.48,1.48,0,0,1,.122-.651.476.476,0,0,1,.446-.265.467.467,0,0,1,.453.265,1.414,1.414,0,0,1,.122.651Z" transform="translate(-2363.183 419.254)" fill="#59595c"></path><path d="M2499.939-412.023a2.113,2.113,0,0,1-.538,1.464,2.522,2.522,0,0,1-1.587.8,4.158,4.158,0,0,1-.528.035,3.878,3.878,0,0,1-1.263-.2c-.385-.129-.574-.272-.574-.426,0-.129.118-.227.36-.3a5.119,5.119,0,0,1,.858-.152c.567-.063.9-.1.985-.115a2.12,2.12,0,0,0,.992-.322.659.659,0,0,0,.159-.5,2.193,2.193,0,0,0-.215-.116,1.059,1.059,0,0,0-.333-.073,1.853,1.853,0,0,1-1.2-.3,1.461,1.461,0,0,1-.416-1.187,2.563,2.563,0,0,1,.529-1.6,1.517,1.517,0,0,1,1.249-.7,1.153,1.153,0,0,1,1.048.676,4.147,4.147,0,0,1,.405,1.5,13.272,13.272,0,0,1,.065,1.511Zm-1.121-1.662a.753.753,0,0,0-.14-.464.436.436,0,0,0-.369-.188.446.446,0,0,0-.373.188.694.694,0,0,0-.15.464.7.7,0,0,0,.15.464.437.437,0,0,0,.373.192.425.425,0,0,0,.364-.2.728.728,0,0,0,.145-.459Z" transform="translate(-2363.725 419.509)" fill="#59595c"></path><path d="M2496.96-414.282c0,.271-.009.467-.009.594s-.007.278-.007.428a1.1,1.1,0,0,1-.533.907,2.184,2.184,0,0,1-1.271.373,2.514,2.514,0,0,1-.607-.076,2.221,2.221,0,0,1-.579-.255,2.461,2.461,0,0,1-.542.267,2.526,2.526,0,0,1-.631.063h-4.639a.556.556,0,0,1-.4-.169.552.552,0,0,1-.172-.4v-.569l3.106-.007a.226.226,0,0,0,.2-.108.542.542,0,0,0,.066-.288v-.211l.007.147v-.7a2.081,2.081,0,0,1,.1-.747.487.487,0,0,1,.486-.32.484.484,0,0,1,.478.32,2.154,2.154,0,0,1,.1.747l.008.839a.271.271,0,0,0,.19.25,1.039,1.039,0,0,0,.466.085.863.863,0,0,0,.438-.1.317.317,0,0,0,.182-.287v-.787a2.269,2.269,0,0,1,.1-.747.489.489,0,0,1,.484-.32.48.48,0,0,1,.48.32,2.077,2.077,0,0,1,.1.747,5.176,5.176,0,0,1-.019.624,1.3,1.3,0,0,0-.007.163.328.328,0,0,0,.18.287.924.924,0,0,0,.446.1,1.143,1.143,0,0,0,.455-.077.278.278,0,0,0,.191-.258v-.839a2.039,2.039,0,0,1,.1-.747.486.486,0,0,1,.475-.32.483.483,0,0,1,.487.32,2.1,2.1,0,0,1,.1.747Z" transform="translate(-2364.888 419.563)" fill="#59595c"></path><path d="M2489.186-413.265a1.564,1.564,0,0,1-.241.847,1.884,1.884,0,0,1-.845.694,3.947,3.947,0,0,1-1.611.286h-4.914a.55.55,0,0,1-.4-.169.58.58,0,0,1-.175-.4v-.569l2.267-.007a.213.213,0,0,0,.2-.108.528.528,0,0,0,.068-.288l.008-4.9a2.043,2.043,0,0,1,.132-.813.473.473,0,0,1,.437-.333.469.469,0,0,1,.437.333,2.016,2.016,0,0,1,.128.813v3.042a4.691,4.691,0,0,1,.894-.312,4.042,4.042,0,0,1,.92-.1,3.561,3.561,0,0,1,1.609.324,1.936,1.936,0,0,1,.839.759,1.71,1.71,0,0,1,.249.9Zm-1.15-.022a.625.625,0,0,0-.363-.542,2.458,2.458,0,0,0-1.216-.241,3.1,3.1,0,0,0-1.307.241c-.314.157-.475.336-.475.542,0,.186.161.356.475.491a3.326,3.326,0,0,0,1.307.224,2.685,2.685,0,0,0,1.216-.218.565.565,0,0,0,.363-.5Z" transform="translate(-2365.857 419.021)" fill="#59595c"></path><path d="M2479.288-412.4a1.673,1.673,0,0,1-.11.677.479.479,0,0,1-.458.286h-2.537a.552.552,0,0,1-.4-.169.543.543,0,0,1-.164-.4v-.569h2.26a.207.207,0,0,0,.19-.11.512.512,0,0,0,.07-.293l.008-5.128a1.423,1.423,0,0,1,.12-.651.472.472,0,0,1,.45-.269.487.487,0,0,1,.458.269,1.546,1.546,0,0,1,.11.651Z" transform="translate(-2366.651 419.021)" fill="#59595c"></path><path d="M2476.3-412.4a1.657,1.657,0,0,1-.11.677.492.492,0,0,1-.462.286H2473.2a.559.559,0,0,1-.4-.169.537.537,0,0,1-.17-.4v-.569h2.259a.229.229,0,0,0,.2-.11.56.56,0,0,0,.065-.293l.006-5.128a1.374,1.374,0,0,1,.123-.651.468.468,0,0,1,.446-.269.46.46,0,0,1,.447.269,1.342,1.342,0,0,1,.125.651Z" transform="translate(-2367.093 419.021)" fill="#59595c"></path><path d="M2473.664-412.785a1.776,1.776,0,0,1-.6,1.362,1.874,1.874,0,0,1-1.28.5,1.83,1.83,0,0,1-.988-.29,1.549,1.549,0,0,1-.694-.87h-1.977a.544.544,0,0,1-.4-.169.542.542,0,0,1-.171-.4v-.569h2.425a1.6,1.6,0,0,1,.648-1.017,1.89,1.89,0,0,1,1.162-.434,1.843,1.843,0,0,1,1.282.511,1.813,1.813,0,0,1,.594,1.369Zm-1.131-.042a.669.669,0,0,0-.221-.5.769.769,0,0,0-.54-.2.645.645,0,0,0-.5.223.767.767,0,0,0-.2.534.64.64,0,0,0,.221.495.763.763,0,0,0,.533.2.639.639,0,0,0,.5-.211.75.75,0,0,0,.207-.536Z" transform="translate(-2367.842 419.664)" fill="#59595c"></path><path d="M2468.911-411.925h-1.029a2.2,2.2,0,0,1-.719-.155,2.212,2.212,0,0,0-.616-.156,2.809,2.809,0,0,0-.7.213,1.405,1.405,0,0,1-.5.1h-2.515a.549.549,0,0,1-.4-.169.547.547,0,0,1-.175-.4v-.569h2.849c-.121-.283-.247-.563-.359-.843.212-.4.341-.659.408-.769a2.146,2.146,0,0,1,.452-.492,8.652,8.652,0,0,1,.862-.555,5.8,5.8,0,0,1,.879.413,1.624,1.624,0,0,1,.479.487,9.007,9.007,0,0,1,.495.92c-.083.192-.144.34-.195.437s-.111.236-.2.4h.97Zm-1.783-1.954a.481.481,0,0,0-.173-.384.577.577,0,0,0-.407-.161.6.6,0,0,0-.417.161.5.5,0,0,0-.182.393.6.6,0,0,0,.172.414.553.553,0,0,0,.415.174.58.58,0,0,0,.417-.174.543.543,0,0,0,.176-.422Z" transform="translate(-2368.623 419.509)" fill="#59595c"></path><path d="M2462.99-411.438h-1.181a.514.514,0,0,1-.487-.3,1.49,1.49,0,0,1-.146-.731v-5.572a1.454,1.454,0,0,1,.136-.7.535.535,0,0,1,.5-.282.531.531,0,0,1,.5.282,1.461,1.461,0,0,1,.137.7l-.021,5.13a.549.549,0,0,0,.052.246.159.159,0,0,0,.156.087l.356.007Z" transform="translate(-2368.784 419.021)" fill="#59595c"></path><path d="M2460.836-412.98c.008.083.013.174.013.285a2.98,2.98,0,0,1-.707,1.894,2.62,2.62,0,0,1-1.662,1.032,3.641,3.641,0,0,1-.523.04,3.949,3.949,0,0,1-1.266-.2c-.384-.128-.575-.274-.575-.43,0-.12.121-.226.366-.3a5.337,5.337,0,0,1,.861-.149c.561-.065.888-.1.978-.119a1.593,1.593,0,0,0,.951-.594,1.779,1.779,0,0,0,.461-1.17v-.133c-.006-.044-.012-.069-.012-.086a3.339,3.339,0,0,0-.169-.668,2.014,2.014,0,0,0-.245-.426c-.117-.16-.229-.317-.348-.477a1.758,1.758,0,0,1-.13-.282,1.36,1.36,0,0,1-.05-.336.787.787,0,0,1,.064-.3.461.461,0,0,1,.2-.222.717.717,0,0,1,.349-.1.687.687,0,0,1,.333.08.792.792,0,0,1,.279.23,3.188,3.188,0,0,1,.546,1.059,7.032,7.032,0,0,1,.289,1.37Z" transform="translate(-2369.53 419.509)" fill="#59595c"></path><path d="M2455.323-416.695a.546.546,0,0,1-.167.4.532.532,0,0,1-.406.171.538.538,0,0,1-.4-.171.545.545,0,0,1-.165-.4.574.574,0,0,1,.159-.405.558.558,0,0,1,.407-.165.547.547,0,0,1,.406.163.558.558,0,0,1,.167.407Zm2.725,3.043a1.807,1.807,0,0,1-.583,1.46,2.422,2.422,0,0,1-1.629.495h-5.1a4.206,4.206,0,0,1-.573,1.609,4.012,4.012,0,0,1-1.252,1.32,3.236,3.236,0,0,1-1.822.551,3.388,3.388,0,0,1-1.917-.572,3.9,3.9,0,0,1-1.386-1.739,7.283,7.283,0,0,1-.532-2.917.722.722,0,0,1,.152-.475.531.531,0,0,1,.415-.178.567.567,0,0,1,.434.189.69.69,0,0,1,.167.452,5.248,5.248,0,0,0,.775,3.042,2.217,2.217,0,0,0,1.893,1.072,2.207,2.207,0,0,0,1.331-.444,2.979,2.979,0,0,0,.887-1.052,2.692,2.692,0,0,0,.316-1.247v-.878a2.089,2.089,0,0,1,.135-.807.483.483,0,0,1,.441-.334.457.457,0,0,1,.432.334,2.461,2.461,0,0,1,.146.94h.587a2.573,2.573,0,0,1-.055-.351c-.011-.124-.019-.239-.019-.343v-.126a1.793,1.793,0,0,1,.469-1.39,2.652,2.652,0,0,1,1.748-.444h2.329a2.691,2.691,0,0,1,1.748.44,1.8,1.8,0,0,1,.464,1.394Zm-1.1.075a.682.682,0,0,0-.294-.62,2.015,2.015,0,0,0-1.051-.207h-1.891a2.03,2.03,0,0,0-1.037.2.7.7,0,0,0-.307.631.608.608,0,0,0,.369.59,2.352,2.352,0,0,0,.976.156h1.891a2.331,2.331,0,0,0,.976-.156.617.617,0,0,0,.369-.59Z" transform="translate(-2371.43 419.28)" fill="#59595c"></path><path d="M2441.669-412.023a2.1,2.1,0,0,1-.539,1.464,2.545,2.545,0,0,1-1.594.8,4.164,4.164,0,0,1-.524.035,3.805,3.805,0,0,1-1.26-.2c-.388-.129-.577-.272-.577-.426,0-.129.118-.227.363-.3a5.2,5.2,0,0,1,.856-.152c.566-.063.894-.1.984-.115a2.086,2.086,0,0,0,.986-.322.646.646,0,0,0,.162-.5,1.285,1.285,0,0,0-.218-.116,1.036,1.036,0,0,0-.327-.073,1.9,1.9,0,0,1-1.2-.3,1.469,1.469,0,0,1-.406-1.187,2.583,2.583,0,0,1,.52-1.6,1.522,1.522,0,0,1,1.247-.7,1.156,1.156,0,0,1,1.054.676,4.153,4.153,0,0,1,.4,1.5,13.632,13.632,0,0,1,.069,1.511Zm-1.121-1.662a.739.739,0,0,0-.142-.464.449.449,0,0,0-.366-.188.451.451,0,0,0-.373.188.7.7,0,0,0-.153.464.706.706,0,0,0,.153.464.442.442,0,0,0,.373.192.428.428,0,0,0,.359-.2.7.7,0,0,0,.149-.459Z" transform="translate(-2372.326 419.509)" fill="#59595c"></path><path d="M2437.381-412.469a1.591,1.591,0,0,1-.138.728.517.517,0,0,1-.5.3.534.534,0,0,1-.5-.3,1.6,1.6,0,0,1-.14-.731v-5.572a1.439,1.439,0,0,1,.14-.7.534.534,0,0,1,.5-.282.527.527,0,0,1,.5.282,1.453,1.453,0,0,1,.138.7Z" transform="translate(-2372.483 419.021)" fill="#59595c"></path><path d="M2435.647-412.4a1.636,1.636,0,0,1-.11.677.475.475,0,0,1-.452.286h-2.535a.544.544,0,0,1-.4-.169.551.551,0,0,1-.172-.4v-.569h2.26a.22.22,0,0,0,.2-.11.541.541,0,0,0,.069-.293l.008-5.128a1.436,1.436,0,0,1,.114-.651.487.487,0,0,1,.459-.269.48.48,0,0,1,.452.269,1.512,1.512,0,0,1,.11.651Z" transform="translate(-2373.093 419.021)" fill="#59595c"></path><path d="M2433.01-412.785a1.762,1.762,0,0,1-.6,1.362,1.879,1.879,0,0,1-1.281.5,1.828,1.828,0,0,1-.982-.29,1.51,1.51,0,0,1-.694-.87h-1.978a.53.53,0,0,1-.395-.169.537.537,0,0,1-.179-.4v-.569h2.427a1.6,1.6,0,0,1,.65-1.017,1.875,1.875,0,0,1,1.163-.434,1.839,1.839,0,0,1,1.279.511,1.789,1.789,0,0,1,.594,1.369Zm-1.138-.042a.652.652,0,0,0-.216-.5.748.748,0,0,0-.537-.2.642.642,0,0,0-.495.223.765.765,0,0,0-.207.534.64.64,0,0,0,.221.495.764.764,0,0,0,.535.2.632.632,0,0,0,.5-.211.745.745,0,0,0,.2-.536Z" transform="translate(-2373.843 419.664)" fill="#59595c"></path><path d="M2427.137-416.28a.256.256,0,0,1-.118.232.344.344,0,0,1-.194.054h-1.806a.255.255,0,0,1-.193-.086.284.284,0,0,1-.082-.2.317.317,0,0,1,.076-.208.252.252,0,0,1,.2-.087h.338c-.1-.2-.165-.337-.2-.425a1.144,1.144,0,0,1-.036-.251.76.76,0,0,1,.272-.58.982.982,0,0,1,.674-.245.861.861,0,0,1,.616.281.826.826,0,0,1,.29.592.206.206,0,0,1-.085.163.243.243,0,0,1-.171.079.25.25,0,0,1-.167-.071.222.222,0,0,1-.084-.162.341.341,0,0,0-.113-.242.512.512,0,0,0-.28-.133.5.5,0,0,0-.239.122.327.327,0,0,0-.1.244.519.519,0,0,0,.2.419,1.194,1.194,0,0,0,.756.208h.141c.2.024.306.121.306.295Zm.579,4.605a2.084,2.084,0,0,1-.542,1.464,2.515,2.515,0,0,1-1.593.8,4,4,0,0,1-.522.036,3.871,3.871,0,0,1-1.263-.2c-.385-.129-.581-.272-.581-.426,0-.129.127-.227.372-.3a5.027,5.027,0,0,1,.858-.151c.564-.063.892-.1.978-.115a2.149,2.149,0,0,0,1-.322.645.645,0,0,0,.155-.5,1.5,1.5,0,0,0-.215-.116,1.043,1.043,0,0,0-.329-.073,1.9,1.9,0,0,1-1.2-.3,1.49,1.49,0,0,1-.407-1.187,2.563,2.563,0,0,1,.528-1.6,1.512,1.512,0,0,1,1.244-.7,1.159,1.159,0,0,1,1.055.676,4.071,4.071,0,0,1,.4,1.5,13.325,13.325,0,0,1,.069,1.511Zm-1.121-1.662a.741.741,0,0,0-.141-.464.452.452,0,0,0-.369-.188.463.463,0,0,0-.379.188.747.747,0,0,0-.139.464.749.749,0,0,0,.139.464.454.454,0,0,0,.379.192.427.427,0,0,0,.363-.2.742.742,0,0,0,.147-.459Z" transform="translate(-2374.387 419.161)" fill="#59595c"></path><path d="M2424.118-416.87a.562.562,0,0,1-.159.4.567.567,0,0,1-.4.171.55.55,0,0,1-.4-.171.539.539,0,0,1-.167-.4.563.563,0,0,1,.163-.407.571.571,0,0,1,.409-.164.575.575,0,0,1,.4.164.563.563,0,0,1,.159.407Zm-1.558,0a.554.554,0,0,1-.168.4.551.551,0,0,1-.4.171.545.545,0,0,1-.4-.171.555.555,0,0,1-.169-.4.578.578,0,0,1,.165-.407.559.559,0,0,1,.4-.164.559.559,0,0,1,.4.164.553.553,0,0,1,.168.407Zm1.553,4.236a1.556,1.556,0,0,1-.118.677.483.483,0,0,1-.457.286h-3.8a.542.542,0,0,1-.4-.169.566.566,0,0,1-.169-.4v-.569l3.522-.007a.229.229,0,0,0,.2-.108.528.528,0,0,0,.069-.288v-.465c0-.185.007-.476.007-.871a1.328,1.328,0,0,1,.124-.651.462.462,0,0,1,.441-.265.474.474,0,0,1,.455.265,1.441,1.441,0,0,1,.121.651Z" transform="translate(-2374.984 419.254)" fill="#59595c"></path><path d="M2420.2-412.785a1.771,1.771,0,0,1-.6,1.362,1.871,1.871,0,0,1-1.28.5,1.808,1.808,0,0,1-.984-.29,1.524,1.524,0,0,1-.7-.87h-1.975a.562.562,0,0,1-.4-.169.558.558,0,0,1-.167-.4v-.569h2.423a1.586,1.586,0,0,1,.654-1.017,1.867,1.867,0,0,1,1.16-.434,1.834,1.834,0,0,1,1.278.511,1.8,1.8,0,0,1,.592,1.369Zm-1.133-.042a.67.67,0,0,0-.215-.5.759.759,0,0,0-.531-.2.659.659,0,0,0-.505.223.763.763,0,0,0-.206.534.642.642,0,0,0,.224.495.755.755,0,0,0,.525.2.668.668,0,0,0,.513-.211.79.79,0,0,0,.194-.536Z" transform="translate(-2375.734 419.664)" fill="#59595c"></path><path d="M2414.867-412.98a1.947,1.947,0,0,1,.017.285,2.953,2.953,0,0,1-.711,1.894,2.609,2.609,0,0,1-1.661,1.032,3.647,3.647,0,0,1-.523.04,3.892,3.892,0,0,1-1.261-.2c-.388-.128-.583-.274-.583-.43,0-.12.126-.226.37-.3a5.419,5.419,0,0,1,.859-.149c.562-.065.889-.1.977-.119a1.558,1.558,0,0,0,.951-.594,1.782,1.782,0,0,0,.464-1.17v-.133a.637.637,0,0,1-.017-.086,3.317,3.317,0,0,0-.166-.668,1.935,1.935,0,0,0-.245-.426c-.112-.16-.228-.317-.346-.477a1.356,1.356,0,0,1-.134-.282,1.233,1.233,0,0,1-.047-.336.736.736,0,0,1,.061-.3.5.5,0,0,1,.2-.222.728.728,0,0,1,.348-.1.7.7,0,0,1,.334.08.846.846,0,0,1,.28.23,3.128,3.128,0,0,1,.542,1.059,7.116,7.116,0,0,1,.291,1.37Z" transform="translate(-2376.315 419.509)" fill="#59595c"></path><path d="M2409.99-412.469a1.546,1.546,0,0,1-.142.728.509.509,0,0,1-.489.3.526.526,0,0,1-.5-.3,1.624,1.624,0,0,1-.141-.731v-5.572a1.477,1.477,0,0,1,.14-.7.527.527,0,0,1,.5-.282.517.517,0,0,1,.489.282,1.413,1.413,0,0,1,.142.7Z" transform="translate(-2376.527 419.021)" fill="#59595c"></path><path d="M2407.232-415.627a.585.585,0,0,1-.16.4.551.551,0,0,1-.4.165.546.546,0,0,1-.4-.165.526.526,0,0,1-.168-.4.531.531,0,0,1,.163-.405.551.551,0,0,1,.4-.162.543.543,0,0,1,.4.162.574.574,0,0,1,.16.405Zm1.606,2.809a1.558,1.558,0,0,1-.115.677.47.47,0,0,1-.451.286h-7.17a.477.477,0,0,1-.453-.286,1.62,1.62,0,0,1-.124-.677v-1.91a1.475,1.475,0,0,1,.118-.651.477.477,0,0,1,.459-.265.475.475,0,0,1,.448.265,1.442,1.442,0,0,1,.114.651c0,.293,0,.551.005.77s0,.417,0,.566a.568.568,0,0,0,.071.29.219.219,0,0,0,.2.106h5.485a.212.212,0,0,0,.2-.108.525.525,0,0,0,.073-.288c0-.118,0-.275,0-.465s.005-.476.005-.871a1.388,1.388,0,0,1,.12-.651.468.468,0,0,1,.448-.265.463.463,0,0,1,.448.265,1.394,1.394,0,0,1,.118.651Zm-5.575-2.809a.548.548,0,0,1-.163.4.551.551,0,0,1-.4.165.564.564,0,0,1-.4-.165.554.554,0,0,1-.167-.4.546.546,0,0,1,.167-.405.537.537,0,0,1,.4-.162.544.544,0,0,1,.4.162.539.539,0,0,1,.163.405Z" transform="translate(-2377.736 419.438)" fill="#59595c"></path><path d="M2398.964-413.755a2.95,2.95,0,0,1-.885,2.278,3.344,3.344,0,0,1-2.371.811,1.754,1.754,0,0,1-.979-.249.988.988,0,0,1-.437-.884.876.876,0,0,1,.056-.353.287.287,0,0,1,.256-.185,1.021,1.021,0,0,1,.546.273.989.989,0,0,0,.558.269,2.92,2.92,0,0,0,1.457-.3,1.2,1.2,0,0,0,.542-.639,1.785,1.785,0,0,0,.076-.56,1.756,1.756,0,0,0-.191-.87.855.855,0,0,0-.8-.436h-.022a1.08,1.08,0,0,0-.693.318c-.221.2-.335.37-.335.507a.5.5,0,0,1-.138.359.423.423,0,0,1-.331.14.491.491,0,0,1-.347-.131.448.448,0,0,1-.147-.344,1.872,1.872,0,0,1,.6-1.346,1.992,1.992,0,0,1,1.443-.617,2.186,2.186,0,0,1,1.5.55,1.8,1.8,0,0,1,.639,1.407Zm-4.326-1.407a.54.54,0,0,1-.167.4.539.539,0,0,1-.405.17.543.543,0,0,1-.4-.17.52.52,0,0,1-.17-.4.514.514,0,0,1,.17-.4.537.537,0,0,1,.4-.169.526.526,0,0,1,.405.169.534.534,0,0,1,.167.4Z" transform="translate(-2378.773 419.507)" fill="#59595c"></path><path d="M2391-413.655a1.611,1.611,0,0,1-.5,1.191,1.665,1.665,0,0,1-1.21.487h-1.646c-.067,0-.1.038-.1.118,0,.01.013.086.024.217a1.175,1.175,0,0,1,.015.178v1.767a2.337,2.337,0,0,1-.126.839c-.1.243-.244.36-.44.36s-.336-.117-.432-.356a2.2,2.2,0,0,1-.129-.844v-2.26a2.019,2.019,0,0,1,.129-.809.465.465,0,0,1,.432-.336l.723,0a1.835,1.835,0,0,1-.076-.256,2.455,2.455,0,0,1-.019-.259,1.711,1.711,0,0,1,.5-1.217,1.591,1.591,0,0,1,1.183-.526,1.576,1.576,0,0,1,1.177.508,1.673,1.673,0,0,1,.494,1.2Zm-1.081,0a.655.655,0,0,0-.184-.458.606.606,0,0,0-.445-.192.6.6,0,0,0-.448.2.644.644,0,0,0-.191.454.625.625,0,0,0,.191.449.609.609,0,0,0,.448.186.576.576,0,0,0,.445-.186.622.622,0,0,0,.184-.449Z" transform="translate(-2379.814 419.561)" fill="#59595c"></path><path d="M2385.211-413.655a1.618,1.618,0,0,1-.5,1.191,1.662,1.662,0,0,1-1.213.487h-1.643c-.065,0-.1.038-.1.118,0,.01.011.086.028.217a1.507,1.507,0,0,1,.009.178v1.767a2.33,2.33,0,0,1-.125.839.475.475,0,0,1-.446.36c-.188,0-.331-.117-.426-.356a2.278,2.278,0,0,1-.128-.844v-2.26a2.088,2.088,0,0,1,.128-.809.464.464,0,0,1,.426-.336l.734,0a1.282,1.282,0,0,1-.076-.256,1.543,1.543,0,0,1-.023-.259,1.708,1.708,0,0,1,.5-1.217,1.6,1.6,0,0,1,1.191-.526,1.568,1.568,0,0,1,1.174.508,1.685,1.685,0,0,1,.491,1.2Zm-1.076,0a.636.636,0,0,0-.19-.458.593.593,0,0,0-.444-.192.611.611,0,0,0-.449.2.633.633,0,0,0-.19.454.615.615,0,0,0,.19.449.619.619,0,0,0,.449.186.594.594,0,0,0,.45-.186.623.623,0,0,0,.184-.449Z" transform="translate(-2380.667 419.561)" fill="#59595c"></path></g></g></g></svg>